<?xml version="1.0" encoding="utf-8"?>
<!-- Generator: Adobe Illustrator 22.1.0, SVG Export Plug-In . SVG Version: 6.00 Build 0)  -->
<svg version="1.1" id="Layer_1" xmlns="http://www.w3.org/2000/svg" xmlns:xlink="http://www.w3.org/1999/xlink" x="0px" y="0px"
	 viewBox="0 0 1045.2 1085.7" style="enable-background:new 0 0 1045.2 1085.7;" xml:space="preserve">
<style type="text/css">
	.st0{opacity:0.15;}
	.st1{fill:none;stroke:#CECECE;stroke-width:0.5;stroke-miterlimit:10;stroke-dasharray:1;}
	.st2{fill:none;stroke:#CECECE;stroke-width:0.5;stroke-miterlimit:10;}
	.st3{fill:none;stroke:#CECECE;stroke-width:0.5;stroke-miterlimit:10;stroke-dasharray:7.9851,0;}
	.st4{opacity:0.18;fill:#1791FF;}
	.st5{opacity:0.18;fill:#FF00BD;}
	.st6{opacity:0.18;fill:#606060;}
	.st7{opacity:0.18;fill:#00FFFF;}
	.st8{opacity:0.18;fill:#FFE28B;}
	.st9{opacity:0.18;fill:#FFFFFF;}
</style>
<title>grid</title>
<g id="Layer_2_1_" class="st0">
	<g id="Layer_2-2">
		<g>
			<line class="st1" x1="87.2" y1="0.1" x2="87.2" y2="1.1"/>
		</g>
		<g>
			<g>
				<line class="st2" x1="87.2" y1="1.1" x2="87.2" y2="5.1"/>
				<line class="st3" x1="87.2" y1="5.1" x2="87.2" y2="1075.1"/>
				<line class="st2" x1="87.2" y1="1075.1" x2="87.2" y2="1079.1"/>
			</g>
		</g>
		<g>
			<line class="st1" x1="87.2" y1="1079.1" x2="87.2" y2="1080.1"/>
		</g>
		<g>
			<line class="st1" x1="174.3" y1="0.6" x2="174.3" y2="1.6"/>
		</g>
		<g>
			<g>
				<line class="st2" x1="174.3" y1="1.6" x2="174.3" y2="5.6"/>
				<line class="st3" x1="174.3" y1="5.6" x2="174.3" y2="1075.6"/>
				<line class="st2" x1="174.3" y1="1075.6" x2="174.3" y2="1079.6"/>
			</g>
		</g>
		<g>
			<line class="st1" x1="174.3" y1="1079.6" x2="174.3" y2="1080.6"/>
		</g>
		<g>
			<line class="st1" x1="0.1" y1="0.6" x2="0.1" y2="1.6"/>
		</g>
		<g>
			<g>
				<line class="st2" x1="0.1" y1="1.6" x2="0.1" y2="5.6"/>
				<line class="st3" x1="0.1" y1="5.6" x2="0.1" y2="1075.6"/>
				<line class="st2" x1="0.1" y1="1075.6" x2="0.1" y2="1079.6"/>
			</g>
		</g>
		<g>
			<line class="st1" x1="0.1" y1="1079.6" x2="0.1" y2="1080.6"/>
		</g>
		<g>
			<line class="st1" x1="261.4" y1="1.1" x2="261.4" y2="2.1"/>
		</g>
		<g>
			<g>
				<line class="st2" x1="261.4" y1="2.1" x2="261.4" y2="6.1"/>
				<line class="st3" x1="261.4" y1="6.1" x2="261.4" y2="1076.1"/>
				<line class="st2" x1="261.4" y1="1076.1" x2="261.4" y2="1080.1"/>
			</g>
		</g>
		<g>
			<line class="st1" x1="261.4" y1="1080.1" x2="261.4" y2="1081.1"/>
		</g>
		<g>
			<line class="st1" x1="348.4" y1="1.6" x2="348.4" y2="2.6"/>
		</g>
		<g>
			<g>
				<line class="st2" x1="348.4" y1="2.6" x2="348.4" y2="6.6"/>
				<line class="st3" x1="348.4" y1="6.6" x2="348.4" y2="1076.6"/>
				<line class="st2" x1="348.4" y1="1076.6" x2="348.4" y2="1080.6"/>
			</g>
		</g>
		<g>
			<line class="st1" x1="348.4" y1="1080.6" x2="348.4" y2="1081.6"/>
		</g>
		<g>
			<line class="st1" x1="435.5" y1="2.1" x2="435.5" y2="3.1"/>
		</g>
		<g>
			<g>
				<line class="st2" x1="435.5" y1="3.1" x2="435.5" y2="7.1"/>
				<line class="st3" x1="435.5" y1="7.1" x2="435.5" y2="1077.1"/>
				<line class="st2" x1="435.5" y1="1077.1" x2="435.5" y2="1081.1"/>
			</g>
		</g>
		<g>
			<line class="st1" x1="435.5" y1="1081.1" x2="435.5" y2="1082.1"/>
		</g>
		<g>
			<line class="st1" x1="522.6" y1="2.6" x2="522.6" y2="3.6"/>
		</g>
		<g>
			<g>
				<line class="st2" x1="522.6" y1="3.6" x2="522.6" y2="7.6"/>
				<line class="st3" x1="522.6" y1="7.6" x2="522.6" y2="1077.6"/>
				<line class="st2" x1="522.6" y1="1077.6" x2="522.6" y2="1081.6"/>
			</g>
		</g>
		<g>
			<line class="st1" x1="522.6" y1="1081.6" x2="522.6" y2="1082.6"/>
		</g>
		<g>
			<line class="st1" x1="609.7" y1="3.1" x2="609.7" y2="4.1"/>
		</g>
		<g>
			<g>
				<line class="st2" x1="609.7" y1="4.1" x2="609.7" y2="8.1"/>
				<line class="st3" x1="609.7" y1="8.1" x2="609.7" y2="1078.1"/>
				<line class="st2" x1="609.7" y1="1078.1" x2="609.7" y2="1082.1"/>
			</g>
		</g>
		<g>
			<line class="st1" x1="609.7" y1="1082.1" x2="609.7" y2="1083.1"/>
		</g>
		<g>
			<line class="st1" x1="696.8" y1="3.6" x2="696.8" y2="4.6"/>
		</g>
		<g>
			<g>
				<line class="st2" x1="696.8" y1="4.6" x2="696.8" y2="8.6"/>
				<line class="st3" x1="696.8" y1="8.6" x2="696.8" y2="1078.6"/>
				<line class="st2" x1="696.8" y1="1078.6" x2="696.8" y2="1082.6"/>
			</g>
		</g>
		<g>
			<line class="st1" x1="696.8" y1="1082.6" x2="696.8" y2="1083.6"/>
		</g>
		<g>
			<line class="st1" x1="783.8" y1="4.1" x2="783.8" y2="5.1"/>
		</g>
		<g>
			<g>
				<line class="st2" x1="783.8" y1="5.1" x2="783.8" y2="9.1"/>
				<line class="st3" x1="783.8" y1="9.1" x2="783.8" y2="1079.1"/>
				<line class="st2" x1="783.8" y1="1079.1" x2="783.8" y2="1083.1"/>
			</g>
		</g>
		<g>
			<line class="st1" x1="783.8" y1="1083.1" x2="783.8" y2="1084.1"/>
		</g>
		<g>
			<line class="st1" x1="870.9" y1="4.6" x2="870.9" y2="5.6"/>
		</g>
		<g>
			<g>
				<line class="st2" x1="870.9" y1="5.6" x2="870.9" y2="9.6"/>
				<line class="st3" x1="870.9" y1="9.6" x2="870.9" y2="1079.6"/>
				<line class="st2" x1="870.9" y1="1079.6" x2="870.9" y2="1083.6"/>
			</g>
		</g>
		<g>
			<line class="st1" x1="870.9" y1="1083.6" x2="870.9" y2="1084.6"/>
		</g>
		<g>
			<line class="st1" x1="958" y1="5.1" x2="958" y2="6.1"/>
		</g>
		<g>
			<g>
				<line class="st2" x1="958" y1="6.1" x2="958" y2="10.1"/>
				<line class="st3" x1="958" y1="10.1" x2="958" y2="1080.1"/>
				<line class="st2" x1="958" y1="1080.1" x2="958" y2="1084.1"/>
			</g>
		</g>
		<g>
			<line class="st1" x1="958" y1="1084.1" x2="958" y2="1085.1"/>
		</g>
		<g>
			<line class="st1" x1="1045.1" y1="5.6" x2="1045.1" y2="6.6"/>
		</g>
		<g>
			<g>
				<line class="st2" x1="1045.1" y1="6.6" x2="1045.1" y2="10.6"/>
				<line class="st3" x1="1045.1" y1="10.6" x2="1045.1" y2="1080.6"/>
				<line class="st2" x1="1045.1" y1="1080.6" x2="1045.1" y2="1084.6"/>
			</g>
		</g>
		<g>
			<line class="st1" x1="1045.1" y1="1084.6" x2="1045.1" y2="1085.6"/>
		</g>
	</g>
</g>
<rect x="87.2" y="281" class="st4" width="87.1" height="20"/>
<rect x="522.6" y="699" class="st5" width="87.1" height="20"/>
<rect x="957" y="610.3" class="st6" width="87.1" height="20"/>
<rect x="261.4" y="555.7" class="st6" width="87.1" height="10"/>
<rect x="609.7" y="345.7" class="st7" width="87.1" height="20"/>
<rect x="783.8" y="782.3" class="st8" width="87.1" height="20"/>
<rect x="348.4" y="911.7" class="st9" width="87.1" height="20"/>
</svg>
