<?xml version="1.0" encoding="utf-8"?>
<!-- Generator: Adobe Illustrator 22.1.0, SVG Export Plug-In . SVG Version: 6.00 Build 0)  -->
<svg version="1.1" id="Layer_1" xmlns="http://www.w3.org/2000/svg" xmlns:xlink="http://www.w3.org/1999/xlink" x="0px" y="0px"
	 viewBox="0 0 1920 1083" style="enable-background:new 0 0 1920 1083;" xml:space="preserve">
<title>layer</title>
<g id="Layer_2_1_">
	<g id="Layer_1-2">
		<polygon points="164.2,0 0,142.4 0,97.5 112.4,0 		"/>
		<polygon points="267.6,0 0,232.1 0,187.1 215.8,0 		"/>
		<polygon points="370.9,0 0,321.7 0,276.8 319.1,0 		"/>
		<polygon points="474.3,0 0,411.3 0,366.4 422.5,0 		"/>
		<polygon points="577.6,0 0,501 0,456 525.8,0 		"/>
		<polygon points="680.9,0 0,590.6 0,545.7 629.2,0 		"/>
		<polygon points="784.3,0 0,680.2 0,635.3 732.5,0 		"/>
		<polygon points="887.6,0 0,769.8 0,724.9 835.8,0 		"/>
		<polygon points="991,0 0,859.5 0,814.6 939.2,0 		"/>
		<polygon points="1094.3,0 0,949.1 0,904.2 1042.5,0 		"/>
		<polygon points="1197.7,0 0,1038.7 0,993.8 1145.9,0 		"/>
		<polygon points="1301,0 52.3,1083 0.5,1083 1249.2,0 		"/>
		<polygon points="1404.3,0 155.7,1083 103.9,1083 1352.6,0 		"/>
		<polygon points="1507.7,0 259,1083 207.2,1083 1455.9,0 		"/>
		<polygon points="1611,0 362.4,1083 310.6,1083 1559.2,0 		"/>
		<polygon points="1714.4,0 465.7,1083 413.9,1083 1662.6,0 		"/>
		<polygon points="1817.7,0 569,1083 517.2,1083 1765.9,0 		"/>
		<polygon points="1920,0 1920,0.9 672.4,1083 620.6,1083 1869.3,0 		"/>
		<polygon points="1920,45.6 1920,90.6 775.7,1083 723.9,1083 		"/>
		<polygon points="1920,135.3 1920,180.2 879.1,1083 827.3,1083 		"/>
		<polygon points="1920,224.9 1920,269.8 982.4,1083 930.6,1083 		"/>
		<polygon points="1920,314.5 1920,359.5 1085.8,1083 1034,1083 		"/>
		<polygon points="1920,404.2 1920,449.1 1189.1,1083 1137.3,1083 		"/>
		<polygon points="1920,493.8 1920,538.7 1292.4,1083 1240.7,1083 		"/>
		<polygon points="1920,583.4 1920,628.3 1395.8,1083 1344,1083 		"/>
		<polygon points="1920,673.1 1920,718 1499.1,1083 1447.3,1083 		"/>
		<polygon points="1920,762.7 1920,807.6 1602.5,1083 1550.7,1083 		"/>
		<polygon points="1920,852.3 1920,897.2 1705.8,1083 1654,1083 		"/>
		<polygon points="1920,942 1920,986.9 1809.2,1083 1757.4,1083 		"/>
	</g>
</g>
</svg>
