<?xml version="1.0" encoding="utf-8"?>
<!-- Generator: Adobe Illustrator 22.1.0, SVG Export Plug-In . SVG Version: 6.00 Build 0)  -->
<svg version="1.1" id="Layer_1" xmlns="http://www.w3.org/2000/svg" xmlns:xlink="http://www.w3.org/1999/xlink" x="0px" y="0px"
	 viewBox="0 0 131 155" style="enable-background:new 0 0 131 155;" xml:space="preserve">
<style type="text/css">
	.st0{fill:#1E1E1E;}
	.st1{fill:#0000FF;}
	.st2{opacity:0.22;fill:url(#SVGID_2_);}
	.st3{fill:#FFFFFF;}
	.st4{fill:none;stroke:#FFFFFF;stroke-width:0.2924;stroke-miterlimit:10;}
	.st5{opacity:0.21;fill:#FFFFFF;enable-background:new    ;}
	.st6{fill:none;stroke:#000000;stroke-width:0.2456;stroke-miterlimit:10;}
	.st7{fill:none;stroke:#FFFFFF;stroke-width:0.2456;stroke-miterlimit:10;}
	.st8{fill:none;stroke:#FFFFFF;stroke-width:0.2573;stroke-miterlimit:10;}
	.st9{fill:#F0A93B;}
	.st10{opacity:8.999630e-02;}
	.st11{clip-path:url(#SVGID_4_);fill:none;stroke:#000000;stroke-width:0.25;stroke-miterlimit:10;}
	.st12{clip-path:url(#SVGID_6_);fill:none;stroke:#000000;stroke-width:0.25;stroke-miterlimit:10;}
	.st13{clip-path:url(#SVGID_8_);fill:none;stroke:#000000;stroke-width:0.25;stroke-miterlimit:10;}
	.st14{clip-path:url(#SVGID_10_);fill:none;stroke:#000000;stroke-width:0.25;stroke-miterlimit:10;}
	.st15{clip-path:url(#SVGID_12_);fill:none;stroke:#000000;stroke-width:0.25;stroke-miterlimit:10;}
	.st16{clip-path:url(#SVGID_14_);fill:none;stroke:#000000;stroke-width:0.25;stroke-miterlimit:10;}
	.st17{clip-path:url(#SVGID_16_);fill:none;stroke:#000000;stroke-width:0.25;stroke-miterlimit:10;}
	.st18{clip-path:url(#SVGID_18_);fill:none;stroke:#000000;stroke-width:0.25;stroke-miterlimit:10;}
	.st19{clip-path:url(#SVGID_20_);fill:none;stroke:#000000;stroke-width:0.25;stroke-miterlimit:10;}
	.st20{clip-path:url(#SVGID_22_);fill:none;stroke:#000000;stroke-width:0.25;stroke-miterlimit:10;}
	.st21{clip-path:url(#SVGID_24_);fill:none;stroke:#000000;stroke-width:0.25;stroke-miterlimit:10;}
	.st22{clip-path:url(#SVGID_26_);fill:none;stroke:#000000;stroke-width:0.25;stroke-miterlimit:10;}
	.st23{clip-path:url(#SVGID_28_);fill:none;stroke:#000000;stroke-width:0.25;stroke-miterlimit:10;}
	.st24{clip-path:url(#SVGID_30_);fill:none;stroke:#000000;stroke-width:0.25;stroke-miterlimit:10;}
	.st25{clip-path:url(#SVGID_32_);fill:none;stroke:#000000;stroke-width:0.25;stroke-miterlimit:10;}
	.st26{fill:none;stroke:#000000;stroke-width:0.25;stroke-miterlimit:10;}
	.st27{fill:none;stroke:#FFFFFF;stroke-width:0.2;stroke-miterlimit:10;}
</style>
<rect class="st0" width="131" height="155"/>
<path class="st1" d="M32.7,104.9l0-27.3c0-19.1,15.6-34.5,34.7-33.2c16.9,1.1,30.3,15.3,30.3,32.5v28H32.7z"/>
<linearGradient id="SVGID_2_" gradientUnits="userSpaceOnUse" x1="65.5" y1="116.402" x2="65.5" y2="90.8416">
	<stop  offset="5.408654e-04" style="stop-color:#6ACBFF;stop-opacity:0.2"/>
	<stop  offset="0.1923" style="stop-color:#68C7FF;stop-opacity:0.3535"/>
	<stop  offset="0.3675" style="stop-color:#60BCFF;stop-opacity:0.4937"/>
	<stop  offset="0.5361" style="stop-color:#54AAFF;stop-opacity:0.6287"/>
	<stop  offset="0.7008" style="stop-color:#4390FF;stop-opacity:0.7605"/>
	<stop  offset="0.861" style="stop-color:#2C6EFF;stop-opacity:0.8888"/>
	<stop  offset="1" style="stop-color:#154BFF"/>
</linearGradient>
<path class="st2" d="M32.7,103.6c0.2-2.4,0.5-4.8,1-7.2c0.8-4.1,2-8.5,4.7-11.9c2.1-2.7,6.1-4.6,9.1-2c1.3,1.2,2.2,2.8,3.4,4.1
	c1.4,1.7,3.5,3.6,5.6,4.3c2.4,0.8,5,0.4,7.4-0.4c1.9-0.6,3.4-2,4.7-3.5c2.7-3.3,4.3-7.4,7.3-10.4c3-2.9,7.8-4.5,11.8-2.7
	c3.5,1.6,5.5,5.3,6.9,8.8c2.5,6.4,3.5,13.6,3.7,20.5c0,0.1,0,0.3,0,0.4H32.7z"/>
<path class="st3" d="M65.5,14.6c20.5,0,37.1,16.6,37.1,37.1S86,88.9,65.5,88.9S28.4,72.3,28.4,51.8S45,14.6,65.5,14.6 M65.5,14.3
	c-20.7,0-37.4,16.8-37.4,37.4s16.8,37.4,37.4,37.4s37.4-16.8,37.4-37.4S86.2,14.3,65.5,14.3z"/>
<polyline class="st4" points="32.7,112.5 37.4,117.1 32.7,121.8 "/>
<polyline class="st4" points="88.9,112.5 93.6,117.1 88.9,121.8 "/>
<polyline class="st4" points="98.3,112.5 93.6,117.1 98.3,121.8 "/>
<circle class="st5" cx="67.8" cy="117.1" r="9.4"/>
<circle class="st3" cx="67.8" cy="117.1" r="7"/>
<polyline class="st6" points="64.3,117.2 66.7,119.5 71.3,114.8 "/>
<path class="st7" d="M56.1,39.6v-4.2c0-2.6,2.1-4.7,4.7-4.7h18.7"/>
<polygon class="st3" points="57.8,38.2 57.5,38 56.1,39.5 54.7,38 54.4,38.2 56.1,40.1 "/>
<rect x="28.1" y="129" class="st8" width="74.9" height="11.7"/>
<line class="st7" x1="32.7" y1="132.5" x2="39.8" y2="132.5"/>
<line class="st7" x1="32.7" y1="134.8" x2="39.8" y2="134.8"/>
<line class="st7" x1="32.7" y1="137.2" x2="39.8" y2="137.2"/>
<g>
	<path class="st3" d="M81.1,25.7h-3.8c-0.4,0-0.7,0.3-0.7,0.7V35c0,0.4,0.4,0.8,0.8,0.8H81c0.4,0,0.8-0.4,0.8-0.8v-8.6
		C81.8,26,81.5,25.7,81.1,25.7 M81.6,35c0,0.3-0.2,0.5-0.5,0.5h-3.6c-0.3,0-0.6-0.3-0.6-0.6v-8.5c0-0.3,0.2-0.5,0.5-0.5h3.7
		c0.3,0,0.5,0.2,0.5,0.5V35z"/>
	<path class="st3" d="M80.2,26.2h-2c-0.1,0-0.2-0.1-0.2-0.2v-0.3h2.3V26C80.4,26.1,80.3,26.2,80.2,26.2"/>
</g>
<g>
	<polygon class="st3" points="55.1,95.6 55,95.8 53.7,98 48.3,98 49.6,95.6 	"/>
	<polyline class="st3" points="52.2,95.5 50.9,93.3 50.8,93.2 49.4,90.8 52.3,90.8 55,95.5 	"/>
	<polygon class="st3" points="50.8,93.3 49.5,95.4 49.4,95.6 48,98 48,97.9 46.6,95.6 49.4,90.9 	"/>
</g>
<path class="st9" d="M93.7,34l-2.5-1.2h-4.5L84.3,34l-2.4,2.2l7,11l7-11L93.7,34z M86.8,33.6H91l1.7,0.8L91,35.1h-4.2l-1.5-0.8
	L86.8,33.6z M93.2,38.4h-8.7l2.3-2.6h4.1L93.2,38.4z M82.7,36.4l1.8-1.6l1.6,0.8l-2.3,2.6L82.7,36.4z M88.9,46l-4.4-7h8.9L88.9,46z
	 M91.6,35.5l1.8-0.8l1.6,1.6l-1.2,1.8L91.6,35.5z"/>
<g>
	<path class="st3" d="M31.5,104.6h-6.9v-6.9h6.9V104.6z M31.8,97.4h-7.5v7.5h7.5V97.4z"/>
	<path class="st3" d="M25.5,102c0.1,0,0.3,0,0.6,0c0.3,0,0.5,0.1,0.6,0.2s0.2,0.3,0.2,0.4c0,0.2-0.1,0.3-0.2,0.5
		c-0.1,0.1-0.4,0.2-0.6,0.2c-0.1,0-0.1,0-0.1,0v0.7h-0.4v-2C25.6,102,25.5,102,25.5,102z M26,102.9h0.1c0.2,0,0.4-0.1,0.4-0.3
		c0-0.2-0.1-0.3-0.3-0.3c-0.1,0-0.1,0-0.2,0V102.9z"/>
	<path class="st3" d="M27.1,103.5c0.1,0,0.2,0.1,0.4,0.1c0.1,0,0.2,0,0.2-0.1s0-0.1-0.2-0.2c-0.3-0.1-0.4-0.3-0.4-0.4
		c0-0.3,0.2-0.5,0.6-0.5c0.2,0,0.3,0,0.4,0.1l-0.1,0.3c-0.1,0-0.2-0.1-0.3-0.1c-0.1,0-0.2,0-0.2,0.1s0.1,0.1,0.2,0.2
		c0.3,0.1,0.4,0.2,0.4,0.4c0,0.3-0.2,0.5-0.6,0.5c-0.2,0-0.3,0-0.5-0.1L27.1,103.5z"/>
</g>
<g>
	<path class="st3" d="M106.3,104.6h-6.9v-6.9h6.9V104.6z M106.7,97.4h-7.5v7.5h7.5V97.4z"/>
	<path class="st3" d="M101.3,103.9l-0.2-0.4c-0.1-0.1-0.1-0.2-0.2-0.4l0,0c0,0.1-0.1,0.2-0.2,0.4l-0.2,0.4H100l0.6-1l-0.6-1h0.5
		l0.2,0.4c0.1,0.1,0.1,0.2,0.2,0.3l0,0c0-0.1,0.1-0.2,0.1-0.3l0.2-0.4h0.5l-0.6,1l0.6,1H101.3z"/>
	<path class="st3" d="M103.4,101.8v1.7c0,0.2,0,0.3,0,0.4H103v-0.2l0,0c-0.1,0.2-0.3,0.2-0.5,0.2c-0.3,0-0.6-0.3-0.6-0.7
		c0-0.5,0.3-0.8,0.6-0.8c0.2,0,0.3,0.1,0.4,0.2l0,0v-0.8C102.9,101.8,103.4,101.8,103.4,101.8z M102.9,103.1
		C102.9,103.1,102.9,103,102.9,103.1c0-0.2-0.1-0.3-0.3-0.3c-0.2,0-0.3,0.2-0.3,0.4c0,0.2,0.1,0.4,0.3,0.4c0.1,0,0.2-0.1,0.3-0.2
		v-0.1V103.1z"/>
</g>
<path class="st3" d="M87.7,65.8h-4.9c-0.3,0-0.5,0.2-0.5,0.5v4.9c0,0.3,0.2,0.5,0.5,0.5h4.9c0.3,0,0.5-0.2,0.5-0.5v-4.9
	C88.2,66,88,65.8,87.7,65.8 M84.3,66.9c0.2,0,0.4,0.2,0.4,0.4c0,0.2-0.2,0.4-0.4,0.4c-0.2,0-0.4-0.2-0.4-0.4S84.1,66.9,84.3,66.9
	 M86.7,70.3c-0.4,0-0.5-0.2-0.5-0.5c0-0.1,0-0.2,0-0.3l0.2-0.6c0-0.1,0-0.1,0-0.2c0-0.2-0.1-0.3-0.3-0.3c-0.3,0-0.4,0.2-0.5,0.5
	l-0.3,1.4h-0.6l0.1-0.4c-0.2,0.3-0.4,0.5-0.7,0.5c-0.4,0-0.5-0.2-0.5-0.5c0-0.1,0-0.2,0-0.3l0.3-1.1h-0.4l0.1-0.5h1l-0.4,1.6
	c0,0.1,0,0.2,0,0.2c0,0.1,0.1,0.1,0.1,0.1s0.4,0,0.6-0.5l0.3-1.1h-0.4l0.1-0.5h0.9l-0.1,0.5c0.2-0.3,0.5-0.6,0.8-0.6
	s0.6,0.2,0.6,0.7c0,0.1,0,0.2-0.1,0.4l-0.2,0.6c0,0.1,0,0.1,0,0.2s0,0.2,0.1,0.2s0.2-0.1,0.3-0.4l0.2,0.1
	C87.2,70.1,87,70.3,86.7,70.3"/>
<g class="st10">
	<g>
		<g>
			<g>
				<defs>
					<rect id="SVGID_3_" x="213.5" y="-78.4" width="69.2" height="69.2"/>
				</defs>
				<clipPath id="SVGID_4_">
					<use xlink:href="#SVGID_3_"  style="overflow:visible;"/>
				</clipPath>
				<rect x="214" y="-78" class="st11" width="68.3" height="68.3"/>
			</g>
		</g>
		<g>
			<g>
				<defs>
					<rect id="SVGID_5_" x="213.5" y="-78.4" width="69.2" height="69.2"/>
				</defs>
				<clipPath id="SVGID_6_">
					<use xlink:href="#SVGID_5_"  style="overflow:visible;"/>
				</clipPath>
				<rect x="231.1" y="-78" class="st12" width="34.2" height="68.3"/>
			</g>
		</g>
		<g>
			<g>
				<defs>
					<rect id="SVGID_7_" x="213.5" y="-78.4" width="69.2" height="69.2"/>
				</defs>
				<clipPath id="SVGID_8_">
					<use xlink:href="#SVGID_7_"  style="overflow:visible;"/>
				</clipPath>
				<line class="st13" x1="248.1" y1="-9.7" x2="248.1" y2="-78"/>
			</g>
		</g>
		<g>
			<g>
				<defs>
					<rect id="SVGID_9_" x="213.5" y="-78.4" width="69.2" height="69.2"/>
				</defs>
				<clipPath id="SVGID_10_">
					<use xlink:href="#SVGID_9_"  style="overflow:visible;"/>
				</clipPath>
				<rect x="214" y="-60.9" class="st14" width="68.3" height="34.2"/>
			</g>
		</g>
		<g>
			<g>
				<defs>
					<rect id="SVGID_11_" x="213.5" y="-78.4" width="69.2" height="69.2"/>
				</defs>
				<clipPath id="SVGID_12_">
					<use xlink:href="#SVGID_11_"  style="overflow:visible;"/>
				</clipPath>
				<line class="st15" x1="282.3" y1="-43.9" x2="214" y2="-43.9"/>
			</g>
		</g>
		<g>
			<g>
				<defs>
					<rect id="SVGID_13_" x="213.5" y="-78.4" width="69.2" height="69.2"/>
				</defs>
				<clipPath id="SVGID_14_">
					<use xlink:href="#SVGID_13_"  style="overflow:visible;"/>
				</clipPath>
				<line class="st16" x1="214" y1="-9.7" x2="282.3" y2="-78"/>
			</g>
		</g>
		<g>
			<g>
				<defs>
					<rect id="SVGID_15_" x="213.5" y="-78.4" width="69.2" height="69.2"/>
				</defs>
				<clipPath id="SVGID_16_">
					<use xlink:href="#SVGID_15_"  style="overflow:visible;"/>
				</clipPath>
				<line class="st17" x1="282.3" y1="-9.7" x2="214" y2="-78"/>
			</g>
		</g>
		<g>
			<g>
				<defs>
					
						<rect id="SVGID_17_" x="213.5" y="-78.6" transform="matrix(0.4336 -0.9011 0.9011 0.4336 180.1402 198.6506)" width="69.2" height="69.2"/>
				</defs>
				<clipPath id="SVGID_18_">
					<use xlink:href="#SVGID_17_"  style="overflow:visible;"/>
				</clipPath>
				
					<ellipse transform="matrix(0.2224 -0.975 0.975 0.2224 235.7047 207.8001)" class="st18" cx="248.1" cy="-43.9" rx="34.2" ry="34.1"/>
			</g>
		</g>
		<g>
			<g>
				<defs>
					
						<rect id="SVGID_19_" x="213.6" y="-78.4" transform="matrix(0.4472 -0.8944 0.8944 0.4472 176.3846 197.7443)" width="69.2" height="69.2"/>
				</defs>
				<clipPath id="SVGID_20_">
					<use xlink:href="#SVGID_19_"  style="overflow:visible;"/>
				</clipPath>
				<ellipse class="st19" cx="248.1" cy="-43.8" rx="23.9" ry="23.9"/>
			</g>
		</g>
		<g>
			<g>
				<defs>
					
						<rect id="SVGID_21_" x="213.5" y="-78.4" transform="matrix(0.9239 -0.3827 0.3827 0.9239 35.6459 91.6143)" width="69.2" height="69.2"/>
				</defs>
				<clipPath id="SVGID_22_">
					<use xlink:href="#SVGID_21_"  style="overflow:visible;"/>
				</clipPath>
				<ellipse class="st20" cx="248.1" cy="-43.9" rx="17.1" ry="17.1"/>
			</g>
		</g>
		<g>
			<g>
				<defs>
					<rect id="SVGID_23_" x="213.5" y="-78.4" width="69.2" height="69.2"/>
				</defs>
				<clipPath id="SVGID_24_">
					<use xlink:href="#SVGID_23_"  style="overflow:visible;"/>
				</clipPath>
				<rect x="236" y="-56" class="st21" width="24.2" height="24.2"/>
			</g>
		</g>
		<g>
			<g>
				<defs>
					
						<rect id="SVGID_25_" x="213.6" y="-78.4" transform="matrix(0.3827 -0.9239 0.9239 0.3827 193.7155 202.2344)" width="69.2" height="69.2"/>
				</defs>
				<clipPath id="SVGID_26_">
					<use xlink:href="#SVGID_25_"  style="overflow:visible;"/>
				</clipPath>
				<ellipse class="st22" cx="248.1" cy="-43.8" rx="12.1" ry="12.1"/>
			</g>
		</g>
		<g>
			<g>
				<defs>
					<rect id="SVGID_27_" x="213.5" y="-78.4" width="69.2" height="69.2"/>
				</defs>
				<clipPath id="SVGID_28_">
					<use xlink:href="#SVGID_27_"  style="overflow:visible;"/>
				</clipPath>
				<rect x="239.6" y="-52.4" class="st23" width="17.1" height="17.1"/>
			</g>
		</g>
		<g>
			<g>
				<defs>
					<rect id="SVGID_29_" x="213.5" y="-78.4" width="69.2" height="69.2"/>
				</defs>
				<clipPath id="SVGID_30_">
					<use xlink:href="#SVGID_29_"  style="overflow:visible;"/>
				</clipPath>
				<path class="st24" d="M239.6-43.9c0-4.7,3.8-8.5,8.5-8.5s8.5,3.8,8.5,8.5s-3.8,8.5-8.5,8.5C243.4-35.3,239.6-39.1,239.6-43.9z"
					/>
			</g>
		</g>
		<g>
			<g>
				<defs>
					<rect id="SVGID_31_" x="213.5" y="-78.4" width="69.2" height="69.2"/>
				</defs>
				<clipPath id="SVGID_32_">
					<use xlink:href="#SVGID_31_"  style="overflow:visible;"/>
				</clipPath>
				<rect x="242.2" y="-49.8" class="st25" width="12" height="12"/>
			</g>
		</g>
		<g>
			<rect id="SVGID_1_" x="213.5" y="-78.4" class="st26" width="69.2" height="69.2"/>
		</g>
	</g>
</g>
<g>
	<path class="st27" d="M51.8,63.6c-9.2-0.2-16.6-7.7-16.6-16.9V44"/>
	
		<rect x="51.4" y="63.2" transform="matrix(2.512419e-02 -0.9997 0.9997 2.512419e-02 -13.0887 113.7149)" class="st3" width="0.8" height="0.8"/>
	<polygon class="st3" points="35.2,43 35.7,44.3 35.2,44 34.7,44.3 	"/>
</g>
<g>
	<polygon class="st3" points="22,29.3 18.3,31.7 20.8,33.7 24.5,31.4 	"/>
	<polygon class="st3" points="18.3,35.7 22,38.1 24.5,36 20.8,33.7 	"/>
	<polygon class="st3" points="24.5,36 27.1,38.1 30.8,35.7 28.2,33.7 	"/>
	<polygon class="st3" points="30.8,31.7 27.1,29.3 24.5,31.4 28.2,33.7 	"/>
	<polygon class="st3" points="24.6,36.5 22,38.6 20.9,37.9 20.9,38.7 24.6,40.9 28.3,38.7 28.3,37.9 27.2,38.6 	"/>
</g>
<g>
	<path class="st3" d="M65.2,72.9l32,31.9h-64L65.2,72.9 M65.2,72.6L32.7,105h65L65.2,72.6L65.2,72.6z"/>
</g>
</svg>
