<svg xmlns="http://www.w3.org/2000/svg" viewBox="0 0 24 26"><defs><style>.cls-1{fill:#f8c700;}.cls-2{fill:#fffdf8;}.cls-3{fill:#ffd600;}.cls-4{fill:#f7be00;}.cls-5{fill:none;stroke:#2d2d2d;stroke-linecap:round;stroke-miterlimit:10;stroke-width:0.8px;}</style></defs><title>suc</title><g id="Layer_2" data-name="Layer 2"><g id="Layer_1-2" data-name="Layer 1"><rect class="cls-1" y="10" width="24" height="16"/><path class="cls-2" d="M3,0H21a1,1,0,0,1,1,1V20H2V1A1,1,0,0,1,3,0Z"/><polygon class="cls-3" points="0 10 12 18 0 26 0 10"/><polygon class="cls-3" points="24 10 12 18 24 26 24 10"/><polygon class="cls-4" points="0 26 12 16 24 26 0 26"/><path class="cls-5" d="M10,2.42a5,5,0,0,1,3.34-.25,4.91,4.91,0,0,1,3.51,3.57,5,5,0,0,1-6.11,6.11A4.91,4.91,0,0,1,7.17,8.34,5,5,0,0,1,7.42,5"/><path class="cls-5" d="M10.13,7.1l.76,1a.18.18,0,0,0,.26,0l3.23-2.26"/></g></g></svg>